<svg id="visual" viewBox="0 0 900 600" width="900" height="600" xmlns="http://www.w3.org/2000/svg" xmlns:xlink="http://www.w3.org/1999/xlink" version="1.1"><path d="M0 103L10.7 100C21.3 97 42.7 91 64.2 97C85.7 103 107.3 121 128.8 125C150.3 129 171.7 119 193 104C214.3 89 235.7 69 257 70C278.3 71 299.7 93 321.2 94C342.7 95 364.3 75 385.8 73C407.3 71 428.7 87 450 86C471.3 85 492.7 67 514.2 69C535.7 71 557.3 93 578.8 109C600.3 125 621.7 135 643 123C664.3 111 685.7 77 707 68C728.3 59 749.7 75 771.2 86C792.7 97 814.3 103 835.8 113C857.3 123 878.7 137 889.3 144L900 151L900 0L889.3 0C878.7 0 857.3 0 835.8 0C814.3 0 792.7 0 771.2 0C749.7 0 728.3 0 707 0C685.7 0 664.3 0 643 0C621.7 0 600.3 0 578.8 0C557.3 0 535.7 0 514.2 0C492.7 0 471.3 0 450 0C428.7 0 407.3 0 385.8 0C364.3 0 342.7 0 321.2 0C299.7 0 278.3 0 257 0C235.7 0 214.3 0 193 0C171.7 0 150.3 0 128.8 0C107.3 0 85.7 0 64.2 0C42.7 0 21.3 0 10.7 0L0 0Z" fill="#eeeeee"></path><path d="M0 133L10.7 138C21.3 143 42.7 153 64.2 164C85.7 175 107.3 187 128.8 184C150.3 181 171.7 163 193 154C214.3 145 235.7 145 257 156C278.3 167 299.7 189 321.2 191C342.7 193 364.3 175 385.8 174C407.3 173 428.7 189 450 188C471.3 187 492.7 169 514.2 165C535.7 161 557.3 171 578.8 176C600.3 181 621.7 181 643 161C664.3 141 685.7 101 707 108C728.3 115 749.7 169 771.2 195C792.7 221 814.3 219 835.8 212C857.3 205 878.7 193 889.3 187L900 181L900 149L889.3 142C878.7 135 857.3 121 835.8 111C814.3 101 792.7 95 771.2 84C749.7 73 728.3 57 707 66C685.7 75 664.3 109 643 121C621.7 133 600.3 123 578.8 107C557.3 91 535.7 69 514.2 67C492.7 65 471.3 83 450 84C428.7 85 407.3 69 385.8 71C364.3 73 342.7 93 321.2 92C299.7 91 278.3 69 257 68C235.7 67 214.3 87 193 102C171.7 117 150.3 127 128.8 123C107.3 119 85.7 101 64.2 95C42.7 89 21.3 95 10.7 98L0 101Z" fill="#f4f4f4"></path><path d="M0 331L10.7 314C21.3 297 42.7 263 64.2 269C85.7 275 107.3 321 128.8 330C150.3 339 171.7 311 193 295C214.3 279 235.7 275 257 278C278.3 281 299.7 291 321.2 305C342.7 319 364.3 337 385.8 330C407.3 323 428.7 291 450 289C471.3 287 492.7 315 514.2 332C535.7 349 557.3 355 578.8 367C600.3 379 621.7 397 643 367C664.3 337 685.7 259 707 260C728.3 261 749.7 341 771.2 375C792.7 409 814.3 397 835.8 372C857.3 347 878.7 309 889.3 290L900 271L900 179L889.3 185C878.7 191 857.3 203 835.8 210C814.3 217 792.7 219 771.2 193C749.7 167 728.3 113 707 106C685.7 99 664.3 139 643 159C621.7 179 600.3 179 578.8 174C557.3 169 535.7 159 514.2 163C492.7 167 471.3 185 450 186C428.7 187 407.3 171 385.8 172C364.3 173 342.7 191 321.2 189C299.7 187 278.3 165 257 154C235.7 143 214.3 143 193 152C171.7 161 150.3 179 128.8 182C107.3 185 85.7 173 64.2 162C42.7 151 21.3 141 10.7 136L0 131Z" fill="#f9f9f9"></path><path d="M0 439L10.7 439C21.3 439 42.7 439 64.2 434C85.7 429 107.3 419 128.8 422C150.3 425 171.7 441 193 447C214.3 453 235.7 449 257 444C278.3 439 299.7 433 321.2 437C342.7 441 364.3 455 385.8 449C407.3 443 428.7 417 450 404C471.3 391 492.7 391 514.2 396C535.7 401 557.3 411 578.8 422C600.3 433 621.7 445 643 452C664.3 459 685.7 461 707 469C728.3 477 749.7 491 771.2 484C792.7 477 814.3 449 835.8 452C857.3 455 878.7 489 889.3 506L900 523L900 269L889.3 288C878.7 307 857.3 345 835.8 370C814.3 395 792.7 407 771.2 373C749.7 339 728.3 259 707 258C685.7 257 664.3 335 643 365C621.7 395 600.3 377 578.8 365C557.3 353 535.7 347 514.2 330C492.7 313 471.3 285 450 287C428.7 289 407.3 321 385.8 328C364.3 335 342.7 317 321.2 303C299.7 289 278.3 279 257 276C235.7 273 214.3 277 193 293C171.7 309 150.3 337 128.8 328C107.3 319 85.7 273 64.2 267C42.7 261 21.3 295 10.7 312L0 329Z" fill="#ffffff"></path><path d="M0 541L10.7 530C21.3 519 42.7 497 64.2 486C85.7 475 107.3 475 128.8 485C150.3 495 171.7 515 193 521C214.3 527 235.7 519 257 515C278.3 511 299.7 511 321.2 517C342.7 523 364.3 535 385.8 529C407.3 523 428.7 499 450 487C471.3 475 492.7 475 514.2 478C535.7 481 557.3 487 578.8 487C600.3 487 621.7 481 643 481C664.3 481 685.7 487 707 495C728.3 503 749.7 513 771.2 508C792.7 503 814.3 483 835.8 489C857.3 495 878.7 527 889.3 543L900 559L900 521L889.3 504C878.7 487 857.3 453 835.8 450C814.3 447 792.7 475 771.2 482C749.7 489 728.3 475 707 467C685.7 459 664.3 457 643 450C621.7 443 600.3 431 578.8 420C557.3 409 535.7 399 514.2 394C492.7 389 471.3 389 450 402C428.7 415 407.3 441 385.8 447C364.3 453 342.7 439 321.2 435C299.7 431 278.3 437 257 442C235.7 447 214.3 451 193 445C171.7 439 150.3 423 128.8 420C107.3 417 85.7 427 64.2 432C42.7 437 21.3 437 10.7 437L0 437Z" fill="#ffffff"></path><path d="M0 553L10.7 548C21.3 543 42.7 533 64.2 534C85.7 535 107.3 547 128.8 557C150.3 567 171.7 575 193 576C214.3 577 235.7 571 257 570C278.3 569 299.7 573 321.2 572C342.7 571 364.3 565 385.8 556C407.3 547 428.7 535 450 532C471.3 529 492.7 535 514.2 542C535.7 549 557.3 557 578.8 556C600.3 555 621.7 545 643 543C664.3 541 685.7 547 707 548C728.3 549 749.7 545 771.2 542C792.7 539 814.3 537 835.8 543C857.3 549 878.7 563 889.3 570L900 577L900 557L889.3 541C878.7 525 857.3 493 835.8 487C814.3 481 792.7 501 771.2 506C749.7 511 728.3 501 707 493C685.7 485 664.3 479 643 479C621.7 479 600.3 485 578.8 485C557.3 485 535.7 479 514.2 476C492.7 473 471.3 473 450 485C428.7 497 407.3 521 385.8 527C364.3 533 342.7 521 321.2 515C299.7 509 278.3 509 257 513C235.7 517 214.3 525 193 519C171.7 513 150.3 493 128.8 483C107.3 473 85.7 473 64.2 484C42.7 495 21.3 517 10.7 528L0 539Z" fill="#ffffff"></path><path d="M0 601L10.7 601C21.3 601 42.7 601 64.2 601C85.7 601 107.3 601 128.8 601C150.3 601 171.7 601 193 601C214.3 601 235.7 601 257 601C278.3 601 299.7 601 321.2 601C342.7 601 364.3 601 385.8 601C407.3 601 428.7 601 450 601C471.3 601 492.7 601 514.2 601C535.7 601 557.3 601 578.8 601C600.3 601 621.7 601 643 601C664.3 601 685.7 601 707 601C728.3 601 749.7 601 771.2 601C792.7 601 814.3 601 835.8 601C857.3 601 878.7 601 889.3 601L900 601L900 575L889.3 568C878.7 561 857.3 547 835.8 541C814.3 535 792.7 537 771.2 540C749.7 543 728.3 547 707 546C685.7 545 664.3 539 643 541C621.7 543 600.3 553 578.8 554C557.3 555 535.7 547 514.2 540C492.7 533 471.3 527 450 530C428.7 533 407.3 545 385.8 554C364.3 563 342.7 569 321.2 570C299.7 571 278.3 567 257 568C235.7 569 214.3 575 193 574C171.7 573 150.3 565 128.8 555C107.3 545 85.7 533 64.2 532C42.7 531 21.3 541 10.7 546L0 551Z" fill="#ffffff"></path></svg>