<svg id="visual" viewBox="0 0 1080 300" width="1080" height="300" xmlns="http://www.w3.org/2000/svg" xmlns:xlink="http://www.w3.org/1999/xlink" version="1.1"><rect width="1080" height="300" fill="#313180"></rect><g><g transform="translate(884 85)"><path d="M0 -100.3L86.9 -50.2L86.9 50.2L0 100.3L-86.9 50.2L-86.9 -50.2Z" fill="none" stroke="#3c3c96" stroke-width="2"></path></g><g transform="translate(658 225)"><path d="M0 -39L33.8 -19.5L33.8 19.5L0 39L-33.8 19.5L-33.8 -19.5Z" fill="none" stroke="#3c3c96" stroke-width="2"></path></g><g transform="translate(59 238)"><path d="M0 -70L60.6 -35L60.6 35L0 70L-60.6 35L-60.6 -35Z" fill="none" stroke="#3c3c96" stroke-width="2"></path></g><g transform="translate(180 28)"><path d="M0 -45L39 -22.5L39 22.5L0 45L-39 22.5L-39 -22.5Z" fill="none" stroke="#3c3c96" stroke-width="2"></path></g><g transform="translate(430 187)"><path d="M0 -52L45 -26L45 26L0 52L-45 26L-45 -26Z" fill="none" stroke="#3c3c96" stroke-width="2"></path></g><g transform="translate(532 2)"><path d="M0 -87L75.3 -43.5L75.3 43.5L0 87L-75.3 43.5L-75.3 -43.5Z" fill="none" stroke="#3c3c96" stroke-width="2"></path></g><g transform="translate(950 288)"><path d="M0 -91L78.8 -45.5L78.8 45.5L0 91L-78.8 45.5L-78.8 -45.5Z" fill="none" stroke="#3c3c96" stroke-width="2"></path></g><g transform="translate(1069 4)"><path d="M0 -50L43.3 -25L43.3 25L0 50L-43.3 25L-43.3 -25Z" fill="none" stroke="#3c3c96" stroke-width="2"></path></g><g transform="translate(253 299)"><path d="M0 -47L40.7 -23.5L40.7 23.5L0 47L-40.7 23.5L-40.7 -23.5Z" fill="none" stroke="#3c3c96" stroke-width="2"></path></g></g></svg>