<svg id="visual" viewBox="0 0 1080 300" width="1080" height="300" xmlns="http://www.w3.org/2000/svg" xmlns:xlink="http://www.w3.org/1999/xlink" version="1.1"><path d="M0 34L120 70L240 31L360 34L480 25L600 28L720 22L840 61L960 70L1080 52L1080 0L960 0L840 0L720 0L600 0L480 0L360 0L240 0L120 0L0 0Z" fill="#53439b"></path><path d="M0 64L120 85L240 52L360 58L480 55L600 79L720 76L840 91L960 97L1080 82L1080 50L960 68L840 59L720 20L600 26L480 23L360 32L240 29L120 68L0 32Z" fill="#4b3e94"></path><path d="M0 148L120 181L240 127L360 136L480 97L600 181L720 193L840 151L960 142L1080 142L1080 80L960 95L840 89L720 74L600 77L480 53L360 56L240 50L120 83L0 62Z" fill="#423a8d"></path><path d="M0 250L120 235L240 268L360 277L480 229L600 235L720 265L840 226L960 232L1080 229L1080 140L960 140L840 149L720 191L600 179L480 95L360 134L240 125L120 179L0 146Z" fill="#3a3586"></path><path d="M0 301L120 301L240 301L360 301L480 301L600 301L720 301L840 301L960 301L1080 301L1080 227L960 230L840 224L720 263L600 233L480 227L360 275L240 266L120 233L0 248Z" fill="#313180"></path></svg>