<svg id="visual" viewBox="0 0 900 600" width="900" height="600" xmlns="http://www.w3.org/2000/svg" xmlns:xlink="http://www.w3.org/1999/xlink" version="1.1"><rect x="0" y="0" width="900" height="600" fill="#2D307E"></rect><defs><linearGradient id="grad1_0" x1="33.3%" y1="100%" x2="100%" y2="0%"><stop offset="20%" stop-color="#2d307e" stop-opacity="1"></stop><stop offset="80%" stop-color="#2d307e" stop-opacity="1"></stop></linearGradient></defs><defs><linearGradient id="grad2_0" x1="0%" y1="100%" x2="66.7%" y2="0%"><stop offset="20%" stop-color="#2d307e" stop-opacity="1"></stop><stop offset="80%" stop-color="#2d307e" stop-opacity="1"></stop></linearGradient></defs><g transform="translate(900, 600)"><path d="M-270.4 0C-246.9 -21.2 -223.4 -42.4 -218.7 -71.1C-214.1 -99.7 -228.3 -135.9 -218.8 -158.9C-209.2 -182 -175.9 -192.1 -149.9 -206.3C-123.8 -220.5 -105 -238.8 -81.3 -250.1C-57.5 -261.5 -28.7 -266 0 -270.4L0 0Z" fill="#353787"></path></g><g transform="translate(0, 0)"><path d="M270.4 0C265.9 28.9 261.4 57.8 249.2 81C236.9 104.1 217 121.4 203.1 147.5C189.1 173.7 181.2 208.6 158.9 218.8C136.7 228.9 100 214.3 71.1 218.7C42.2 223.2 21.1 246.8 0 270.4L0 0Z" fill="#353787"></path></g></svg>