<svg id="visual" viewBox="0 0 1080 400" width="1080" height="400" xmlns="http://www.w3.org/2000/svg" xmlns:xlink="http://www.w3.org/1999/xlink" version="1.1"><rect x="0" y="0" width="1080" height="400" fill="#313180"></rect><path d="M0 285L25.7 277.5C51.3 270 102.7 255 154.2 248.8C205.7 242.7 257.3 245.3 308.8 249.2C360.3 253 411.7 258 463 255.7C514.3 253.3 565.7 243.7 617 241.8C668.3 240 719.7 246 771.2 255.7C822.7 265.3 874.3 278.7 925.8 278C977.3 277.3 1028.7 262.7 1054.3 255.3L1080 248L1080 401L1054.3 401C1028.7 401 977.3 401 925.8 401C874.3 401 822.7 401 771.2 401C719.7 401 668.3 401 617 401C565.7 401 514.3 401 463 401C411.7 401 360.3 401 308.8 401C257.3 401 205.7 401 154.2 401C102.7 401 51.3 401 25.7 401L0 401Z" fill="#3b3b8d"></path><path d="M0 272L25.7 279C51.3 286 102.7 300 154.2 307.7C205.7 315.3 257.3 316.7 308.8 312.5C360.3 308.3 411.7 298.7 463 294.7C514.3 290.7 565.7 292.3 617 297C668.3 301.7 719.7 309.3 771.2 313C822.7 316.7 874.3 316.3 925.8 311.7C977.3 307 1028.7 298 1054.3 293.5L1080 289L1080 401L1054.3 401C1028.7 401 977.3 401 925.8 401C874.3 401 822.7 401 771.2 401C719.7 401 668.3 401 617 401C565.7 401 514.3 401 463 401C411.7 401 360.3 401 308.8 401C257.3 401 205.7 401 154.2 401C102.7 401 51.3 401 25.7 401L0 401Z" fill="#333283"></path><path d="M0 297L25.7 302.2C51.3 307.3 102.7 317.7 154.2 319.2C205.7 320.7 257.3 313.3 308.8 314.5C360.3 315.7 411.7 325.3 463 323.7C514.3 322 565.7 309 617 307.5C668.3 306 719.7 316 771.2 315.2C822.7 314.3 874.3 302.7 925.8 297.8C977.3 293 1028.7 295 1054.3 296L1080 297L1080 401L1054.3 401C1028.7 401 977.3 401 925.8 401C874.3 401 822.7 401 771.2 401C719.7 401 668.3 401 617 401C565.7 401 514.3 401 463 401C411.7 401 360.3 401 308.8 401C257.3 401 205.7 401 154.2 401C102.7 401 51.3 401 25.7 401L0 401Z" fill="#2b297a"></path><path d="M0 339L25.7 336.8C51.3 334.7 102.7 330.3 154.2 334C205.7 337.7 257.3 349.3 308.8 352.8C360.3 356.3 411.7 351.7 463 348C514.3 344.3 565.7 341.7 617 338.8C668.3 336 719.7 333 771.2 334.2C822.7 335.3 874.3 340.7 925.8 345.2C977.3 349.7 1028.7 353.3 1054.3 355.2L1080 357L1080 401L1054.3 401C1028.7 401 977.3 401 925.8 401C874.3 401 822.7 401 771.2 401C719.7 401 668.3 401 617 401C565.7 401 514.3 401 463 401C411.7 401 360.3 401 308.8 401C257.3 401 205.7 401 154.2 401C102.7 401 51.3 401 25.7 401L0 401Z" fill="#222071"></path><path d="M0 372L25.7 369.5C51.3 367 102.7 362 154.2 361.3C205.7 360.7 257.3 364.3 308.8 366.2C360.3 368 411.7 368 463 367.5C514.3 367 565.7 366 617 363C668.3 360 719.7 355 771.2 357.7C822.7 360.3 874.3 370.7 925.8 374.5C977.3 378.3 1028.7 375.7 1054.3 374.3L1080 373L1080 401L1054.3 401C1028.7 401 977.3 401 925.8 401C874.3 401 822.7 401 771.2 401C719.7 401 668.3 401 617 401C565.7 401 514.3 401 463 401C411.7 401 360.3 401 308.8 401C257.3 401 205.7 401 154.2 401C102.7 401 51.3 401 25.7 401L0 401Z" fill="#191768"></path></svg>